<?xml version="1.0" encoding="utf-8"?>
<!-- Generator: Adobe Adobe Illustrator 24.2.0, SVG Export Plug-In . SVG Version: 6.00 Build 0)  -->
<svg version="1.1" id="Layer_1" xmlns="http://www.w3.org/2000/svg" xmlns:xlink="http://www.w3.org/1999/xlink" x="0px" y="0px"
	 viewBox="0 0 326.18 38.88" style="enable-background:new 0 0 326.18 38.88;" xml:space="preserve">
<path d="M6.58,4.03H0V0h18.39v4.03H12v34.85H6.58V4.03z"/>
<path d="M29.08,25.15L20.68,0h5.04l5.95,18.77L37.53,0h5.09l-8.35,25.15v13.73h-5.18V25.15z"/>
<path d="M45.22,0h5.42v35h9.94v3.89H45.22V0z"/>
<path d="M64.27,0h15.07v4.03H69.7V16.9h7.82v3.84H69.7V35h9.74v3.89H64.27V0z"/>
<path d="M83.81,0h7.82c7.78,0,11.42,2.93,11.42,10.32c0,4.56-1.34,7.92-4.8,9.07l5.52,19.49h-5.23l-5.09-18.24h-4.22v18.24h-5.42V0z
	 M91.3,16.75c4.56,0,6.53-1.44,6.53-6.43c0-4.56-1.25-6.43-6.19-6.43h-2.4v12.87H91.3z"/>
<path d="M121.56,27.99l4.8-1.3c0.29,4.18,1.34,8.35,5.52,8.35c2.78,0,4.27-1.58,4.27-4.56c0-3.5-1.78-5.33-4.22-7.49l-6.53-5.76
	c-2.59-2.26-3.74-4.7-3.74-8.59c0-5.71,3.5-8.98,9.12-8.98c6.19,0,9.17,3.22,9.79,10.03l-4.61,1.25c-0.29-3.84-1.15-7.1-5.18-7.1
	c-2.69,0-4.27,1.44-4.27,4.27c0,2.35,0.72,3.7,2.54,5.28l6.58,5.76c2.93,2.59,5.57,6.05,5.57,10.9c0,5.76-3.89,9.26-9.31,9.26
	C125.11,39.32,121.94,34.71,121.56,27.99z"/>
<path d="M144.69,26.4V12.67c0-7.87,2.21-13.01,10.46-13.01c7.25,0,9.79,4.18,9.79,11.18v3.07h-5.14v-2.74c0-4.32-0.1-7.3-4.61-7.3
	c-4.61,0-5.04,3.17-5.04,7.97v15.41c0,5.86,1.3,7.78,5.04,7.78c4.37,0,4.61-3.12,4.61-7.73v-2.88h5.14v2.88c0,7.15-2.16,12-9.79,12
	C146.9,39.32,144.69,33.65,144.69,26.4z"/>
<path d="M169.13,0h5.42v16.8h9.98V0h5.42v38.88h-5.42V20.69h-9.98v18.19h-5.42V0z"/>
<path d="M195.06,0h7.82c7.78,0,11.42,2.93,11.42,10.32c0,4.56-1.34,7.92-4.8,9.07l5.52,19.49h-5.23l-5.09-18.24h-4.22v18.24h-5.42V0
	z M202.55,16.75c4.56,0,6.53-1.44,6.53-6.43c0-4.56-1.25-6.43-6.19-6.43h-2.4v12.87H202.55z"/>
<path d="M217.25,26.69V11.95c0-7.68,2.78-12.29,10.66-12.29c7.82,0,10.61,4.66,10.61,12.29v14.79c0,7.63-2.78,12.58-10.61,12.58
	C219.99,39.32,217.25,34.42,217.25,26.69z M233.05,27.89V10.85c0-4.32-0.82-6.96-5.14-6.96c-4.37,0-5.18,2.64-5.18,6.96v17.04
	c0,4.32,0.82,7.15,5.18,7.15C232.23,35.04,233.05,32.21,233.05,27.89z"/>
<path d="M242.85,0h15.07v4.03h-9.65V16.9h7.82v3.84h-7.82V35h9.74v3.89h-15.17V0z"/>
<path d="M262.38,0h8.45c8.64,0,11.52,3.98,11.52,11.86v14.31c0,8.26-2.93,12.72-11.09,12.72h-8.88V0z M270.88,35
	c5.91,0,6-3.55,6-9.84V12.53c0-6-0.58-8.5-6.14-8.5h-2.93V35H270.88z"/>
<path d="M286.68,0h15.07v4.03h-9.65V16.9h7.82v3.84h-7.82V35h9.74v3.89h-15.17V0z"/>
<path d="M306.21,0h7.82c7.78,0,11.43,2.93,11.43,10.32c0,4.56-1.34,7.92-4.8,9.07l5.52,19.49h-5.23l-5.09-18.24h-4.22v18.24h-5.42V0
	z M313.7,16.75c4.56,0,6.53-1.44,6.53-6.43c0-4.56-1.25-6.43-6.19-6.43h-2.4v12.87H313.7z"/>
</svg>
